<svg id="Capa_1" enable-background="new 0 0 510 510" height="512" viewBox="0 0 510 510" width="512" xmlns="http://www.w3.org/2000/svg"><g><path d="m135 240h240v60h-240z"/><path d="m75 435c-20.759 0-39.352-9.426-51.743-24.215-14.313 13.666-23.257 32.91-23.257 54.215v45h150v-45c0-21.305-8.944-40.549-23.257-54.215-12.391 14.789-30.984 24.215-51.743 24.215z"/><circle cx="75" cy="367.5" r="37.5"/><circle cx="255" cy="37.5" r="37.5"/><path d="m255 435c-20.759 0-39.352-9.426-51.743-24.215-14.313 13.666-23.257 32.91-23.257 54.215v45h150v-45c0-21.305-8.944-40.549-23.257-54.215-12.391 14.789-30.984 24.215-51.743 24.215z"/><circle cx="255" cy="367.5" r="37.5"/><path d="m486.743 410.785c-12.391 14.789-30.984 24.215-51.743 24.215s-39.352-9.426-51.743-24.215c-14.313 13.666-23.257 32.91-23.257 54.215v45h150v-45c0-21.305-8.944-40.549-23.257-54.215z"/><circle cx="435" cy="367.5" r="37.5"/><path d="m135 210h240v-30h30v-30c-14.168 0-60.835 0-75 0v-15c0-21.305-8.944-40.549-23.257-54.215-12.391 14.789-30.984 24.215-51.743 24.215s-39.352-9.426-51.743-24.215c-14.313 13.666-23.257 32.91-23.257 54.215v15c-10.665 0-13.017 0-75 0v30h30z"/></g></svg>